<svg width="703" height="459" viewBox="0 0 703 459" fill="none" xmlns="http://www.w3.org/2000/svg">
<path d="M351.5 458.958C545.628 458.958 703 440.631 703 418.025C703 395.419 545.628 377.093 351.5 377.093C157.372 377.093 0 395.419 0 418.025C0 440.631 157.372 458.958 351.5 458.958Z" fill="#E7EEF1"/>
<g opacity="0.5">
<g opacity="0.5">
<path opacity="0.5" d="M238.934 87.265C239.663 71.535 253.552 58.248 269.069 58.248C291.059 58.248 298.261 75.3496 299.118 91.0368C300.018 107.367 285.83 118.511 270.312 118.511C254.838 118.511 238.034 106.767 238.934 87.265Z" fill="#2BA9E1"/>
</g>
<g opacity="0.5">
<path opacity="0.5" d="M244.378 88.8934C244.378 76.3779 256.681 63.0481 269.026 62.6195C287.287 62.0194 294.66 80.7926 294.66 93.3509C294.66 105.866 281.929 113.324 269.583 113.324C257.238 113.324 244.378 101.409 244.378 88.8934Z" fill="white"/>
</g>
<g opacity="0.5">
<path opacity="0.5" d="M266.368 88.4655C266.54 86.7511 268.34 85.6367 270.012 85.6367C271.684 85.6367 273.527 87.6941 273.527 89.4085C273.527 91.1229 271.727 92.5374 270.012 92.5374C268.34 92.5374 266.068 91.6373 266.368 88.4655Z" fill="#2BA9E1"/>
</g>
<g opacity="0.5">
<g opacity="0.5">
<path opacity="0.5" d="M270.012 90.0506H270.612C270.955 90.0506 271.212 89.7934 271.212 89.4505C271.212 89.1076 271.984 87.9504 271.641 87.9504L271.298 87.2218L270.569 70.2916L271.341 70.7631C271.512 71.0631 271.898 71.106 272.198 70.9345C272.455 70.7202 272.541 70.3773 272.37 70.0773L270.483 67.2913C270.312 67.077 270.055 66.9913 269.798 67.0342C269.54 67.1199 269.369 67.3342 269.369 67.6342L268.34 89.3648C268.383 89.7077 269.712 90.0506 270.012 90.0506Z" fill="#2BA9E1"/>
</g>
<g opacity="0.5">
<path opacity="0.5" d="M267.912 70.8488C268.083 70.8488 268.255 70.7631 268.383 70.6345L270.698 68.9629C270.912 68.7057 270.612 67.4199 270.355 67.2056C270.098 66.9913 269.712 67.0341 269.498 67.2913L267.44 69.863C267.226 70.1201 267.269 70.5059 267.526 70.7202C267.654 70.8059 267.783 70.8488 267.912 70.8488Z" fill="#2BA9E1"/>
</g>
</g>
<g opacity="0.5">
<g opacity="0.5">
<path opacity="0.5" d="M281.071 92.0234C281.243 92.0234 281.371 91.9805 281.5 91.852L283.3 89.9661C283.472 89.7946 283.515 89.5375 283.429 89.2803C283.343 89.066 283.129 88.8945 282.872 88.8945L268.512 88.123C268.169 88.123 267.997 89.1946 267.997 89.5375V90.1804C267.997 90.5233 268.254 90.7804 268.597 90.7804C268.94 90.7804 269.712 91.0805 269.712 90.7376L269.24 90.1375L281.457 90.0947L280.643 90.9519C280.428 91.209 280.428 91.5948 280.643 91.8091C280.729 91.9805 280.9 92.0234 281.071 92.0234Z" fill="#2BA9E1"/>
</g>
<g opacity="0.5">
<path opacity="0.5" d="M282.872 90.1371C283 90.1371 283.129 90.0942 283.258 90.0085C283.515 89.7942 283.558 89.4084 283.343 89.1513L281.672 87.0511C281.457 86.7939 281.071 86.751 280.814 86.9653C280.557 87.1796 280.514 87.5654 280.729 87.8226L281.372 89.4084C281.5 89.537 282.7 90.1371 282.872 90.1371Z" fill="#2BA9E1"/>
</g>
</g>
</g>
<path d="M581.09 428.525C581.475 428.525 581.904 428.44 582.29 428.311C584.176 427.625 585.162 425.568 584.519 423.682L515.762 228.835C515.076 226.949 513.019 225.964 511.132 226.607C509.246 227.292 508.26 229.35 508.903 231.236L577.66 426.082C578.175 427.582 579.589 428.525 581.09 428.525Z" fill="#091B2D"/>
<path d="M674.494 428.525C674.88 428.525 675.309 428.44 675.695 428.311C677.581 427.625 678.567 425.568 677.924 423.682L609.167 228.835C608.481 226.949 606.423 225.964 604.537 226.607C602.651 227.292 601.665 229.35 602.308 231.236L671.065 426.082C671.622 427.582 672.994 428.525 674.494 428.525Z" fill="#091B2D"/>
<path d="M559.699 364.276L653.104 364.233L655.719 371.606L561.886 370.491L559.699 364.276Z" fill="#091B2D"/>
<path d="M533.08 295.656H626.485L629.099 302.986L535.266 301.871L533.08 295.656Z" fill="#091B2D"/>
<path d="M519.791 249.666L613.239 249.623L615.811 256.995L521.978 255.881L519.791 249.666Z" fill="#091B2D"/>
<path d="M531.451 416.524C533.037 416.524 534.537 415.453 534.966 413.824L554.427 340.403C554.941 338.474 553.784 336.503 551.855 335.988C549.926 335.474 547.954 336.631 547.44 338.56L527.979 411.981C527.464 413.91 528.622 415.882 530.551 416.396C530.851 416.482 531.151 416.524 531.451 416.524Z" fill="#091B2D"/>
<path d="M341.169 0H533.766C540.238 0 545.468 5.22906 545.468 11.7011V46.6758C545.468 66.1347 529.693 81.9076 510.232 81.9076H341.169C334.697 81.9076 329.467 76.6786 329.467 70.2066V11.7011C329.467 5.22906 334.697 0 341.169 0Z" fill="#091B2D"/>
<path d="M528.279 62.2773C529.736 62.2773 530.465 64.0346 529.479 65.1062C522.921 72.3069 513.576 76.8073 503.159 76.8073H371.476C366.417 76.8073 362.302 72.6497 362.302 67.5064V63.9918C362.302 63.0488 363.031 62.3202 363.931 62.3202H528.279V62.2773Z" fill="#2BA9E1"/>
<path d="M365.26 53.362H533.98C534.537 53.362 535.009 52.8906 535.009 52.3334C535.009 51.7762 534.537 51.3047 533.98 51.3047H365.26C364.703 51.3047 364.231 51.7762 364.231 52.3334C364.231 52.8906 364.703 53.362 365.26 53.362Z" fill="#2BA9E1"/>
<path d="M365.26 45.4753H533.98C534.537 45.4753 535.009 45.0038 535.009 44.4466C535.009 43.8894 534.537 43.418 533.98 43.418H365.26C364.703 43.418 364.231 43.8894 364.231 44.4466C364.231 45.0038 364.703 45.4753 365.26 45.4753Z" fill="#2BA9E1"/>
<path d="M365.26 7.54369C365.26 5.78638 366.674 4.3291 368.432 4.3291C370.189 4.3291 371.604 5.74352 371.604 7.54369C371.604 9.30099 370.189 10.7583 368.432 10.7583C366.674 10.7154 365.26 9.30099 365.26 7.54369Z" fill="white"/>
<path d="M377.52 7.54369C377.52 5.78638 378.934 4.3291 380.692 4.3291C382.449 4.3291 383.864 5.74352 383.864 7.54369C383.864 9.30099 382.449 10.7583 380.692 10.7583C378.934 10.7154 377.52 9.30099 377.52 7.54369Z" fill="white"/>
<path d="M653.533 203.848C654.476 203.762 655.29 204.491 655.376 205.434L656.533 220.092C656.619 221.035 655.89 221.849 654.99 221.935C654.047 222.021 653.233 221.292 653.147 220.349L651.99 205.691C651.904 204.748 652.632 203.933 653.533 203.848Z" fill="#FDAD9B"/>
<path d="M649.203 204.19C650.146 204.105 650.961 204.833 651.047 205.776L652.375 222.149C652.461 223.092 651.732 223.949 650.832 223.992C649.889 224.078 649.075 223.349 648.989 222.406L647.66 206.033C647.574 205.091 648.303 204.276 649.203 204.19Z" fill="#FDAD9B"/>
<path d="M647.36 195.789L647.875 196.132C648.818 196.775 649.075 198.061 648.432 199.004L642.302 208.262C641.659 209.205 640.373 209.462 639.473 208.819L638.958 208.476C638.015 207.833 637.758 206.548 638.401 205.605L644.531 196.347C645.131 195.404 646.417 195.147 647.36 195.789Z" fill="#FDAD9B"/>
<path d="M644.874 204.576C645.817 204.49 646.631 205.219 646.717 206.162L647.789 219.278C647.874 220.22 647.146 221.078 646.245 221.121C645.302 221.206 644.488 220.478 644.402 219.535L643.331 206.419C643.245 205.476 643.974 204.619 644.874 204.576Z" fill="#FDAD9B"/>
<path d="M655.805 195.275C655.805 195.275 661.377 203.333 659.363 210.02C658.677 212.334 645.903 213.02 644.531 210.705C643.159 208.391 643.288 199.433 643.288 199.433L655.805 195.275Z" fill="#FDAD9B"/>
<path d="M657.862 203.462C658.805 203.376 659.62 204.105 659.706 205.048L660.777 218.163C660.863 219.106 660.134 219.921 659.234 220.006C658.291 220.092 657.476 219.363 657.391 218.42L656.276 205.305C656.233 204.362 656.919 203.548 657.862 203.462Z" fill="#FDAD9B"/>
<path d="M641.188 201.276C634.629 183.274 623.827 157.9 609.595 139.384C606.295 135.098 604.966 133.512 602.694 131.283C600.851 129.483 601.88 124.211 604.837 120.997C607.624 117.997 612.939 116.925 614.011 117.697C615.897 119.068 618.254 122.025 622.026 126.783C635.058 143.199 646.289 165.915 656.533 196.432L641.188 201.276Z" fill="#FDAD9B"/>
<g opacity="0.5">
<path opacity="0.5" d="M633.043 158.458C632.1 158.115 631.243 157.215 630.728 156.1C629.871 154.171 630.257 152.157 631.586 151.514C632.1 151.3 632.7 151.257 633.257 151.514C634.2 151.857 635.058 152.757 635.572 153.871C636.429 155.8 636.044 157.815 634.715 158.458C634.457 158.586 634.157 158.629 633.9 158.629C633.6 158.586 633.3 158.543 633.043 158.458ZM631.886 152.157C630.9 152.586 630.685 154.257 631.371 155.8C631.8 156.743 632.529 157.515 633.257 157.772C633.686 157.943 634.072 157.943 634.415 157.772C635.401 157.343 635.615 155.672 634.929 154.129C634.5 153.186 633.772 152.414 633.043 152.157C632.829 152.071 632.614 152.028 632.443 152.028C632.228 152.028 632.057 152.071 631.886 152.157Z" fill="#E08B65"/>
</g>
<path d="M578.389 106.982L576.417 98.3236L575.86 95.7948L572.516 80.9648L570.887 95.3233L569.901 103.938L569.601 106.682C569.387 108.525 568.916 111.139 567.415 112.682C566.815 113.282 562.357 114.697 566.215 116.754C571.016 119.368 580.575 116.668 584.433 112.511C584.39 112.553 579.032 109.768 578.389 106.982Z" fill="#FDAD9B"/>
<path d="M560.342 83.8368C562.057 75.436 569.044 69.7783 575.903 71.2356C582.761 72.6929 586.962 80.6651 585.248 89.1087C583.533 97.5095 576.546 103.167 569.687 101.71C562.786 100.253 558.628 92.2376 560.342 83.8368Z" fill="#FDAD9B"/>
<path d="M566.044 80.4928C558.756 80.2357 555.584 75.6924 555.756 71.792C556.013 66.7344 559.485 62.4911 563 64.677C566.515 66.8201 565.272 62.1054 568.83 61.8911C575.431 61.4625 576.331 66.3058 581.647 66.9058C588.677 67.7631 595.878 80.2785 589.32 88.5936C589.32 88.5507 571.788 80.7071 566.044 80.4928Z" fill="#2BA9E1"/>
<path d="M559.957 74.921C559.957 74.921 567.158 83.0647 565.829 87.2651C564.5 91.4654 564.629 93.137 569.001 95.7516C573.374 98.3661 569.087 101.752 575.088 102.481C581.089 103.209 589.02 96.5231 589.877 84.6505C590.349 78.007 586.919 73.4209 586.919 73.4209L559.957 74.921Z" fill="#2BA9E1"/>
<path d="M561.928 86.7938C562.914 85.5937 564.543 85.3365 565.615 86.2366C566.687 87.1367 566.729 88.8083 565.786 90.0084C564.8 91.2085 563.172 91.4657 562.1 90.5656C561.028 89.6655 560.943 87.9939 561.928 86.7938Z" fill="#FDAD9B"/>
<path d="M587.777 86.8791C587.819 86.8791 587.819 86.8791 587.862 86.8791C587.948 86.8362 587.991 86.7505 587.991 86.6219C587.348 84.9075 585.633 84.1788 585.59 84.136C585.505 84.0931 585.376 84.136 585.333 84.2217C585.29 84.3074 585.333 84.436 585.419 84.4788C585.419 84.4788 587.048 85.1646 587.648 86.7076C587.648 86.8362 587.691 86.8791 587.777 86.8791Z" fill="#2BA9E1"/>
<path d="M585.333 83.5795C585.333 83.5795 585.376 83.5795 585.333 83.5795C585.376 83.5795 587.605 83.108 587.691 81.2221C587.691 81.1364 587.605 81.0507 587.519 81.0078C587.434 81.0078 587.348 81.0935 587.305 81.1793C587.219 82.7651 585.333 83.1509 585.29 83.1937C585.205 83.1937 585.119 83.3223 585.162 83.408C585.162 83.5366 585.247 83.5795 585.333 83.5795Z" fill="#2BA9E1"/>
<path d="M564.2 64.42C564.415 64.42 564.586 64.3771 564.8 64.2485C565.829 63.6485 566.172 61.634 566.172 61.5483C566.172 61.4626 566.129 61.334 566.001 61.334C565.915 61.334 565.786 61.3768 565.786 61.5054C565.786 61.5054 565.443 63.477 564.586 63.9485C564.372 64.0771 564.115 64.0771 563.857 63.9914C563.343 63.7771 562.914 63.4342 562.529 63.1342C561.757 62.4912 560.943 61.8483 559.228 62.2769C559.142 62.3198 559.057 62.4055 559.099 62.4912C559.142 62.577 559.228 62.6627 559.314 62.6198C560.857 62.2341 561.5 62.7913 562.271 63.3913C562.7 63.7342 563.129 64.0771 563.686 64.2914C563.9 64.42 564.029 64.42 564.2 64.42Z" fill="#2BA9E1"/>
<path d="M581.518 66.2629C581.647 66.2629 581.818 66.2629 581.947 66.2629C582.033 66.2629 582.118 66.1772 582.118 66.0486C582.118 65.9629 582.033 65.8772 581.904 65.8772C579.118 66.1343 576.889 63.6912 576.889 63.6912C576.803 63.6055 576.717 63.6055 576.631 63.6912C576.546 63.777 576.546 63.8627 576.631 63.9484C576.717 63.9913 578.775 66.2629 581.518 66.2629Z" fill="#2BA9E1"/>
<path d="M563.686 91.2085C564.329 91.2085 565.272 90.9513 566.129 89.494C566.172 89.4511 566.129 89.4083 566.086 89.3654C566.044 89.3225 566.001 89.3654 565.958 89.4083C564.672 91.5513 563.172 90.9513 563.086 90.9084C563.043 90.9084 563 90.9084 562.957 90.9513C562.957 90.9941 562.957 91.037 563 91.0799C563.043 91.1227 563.3 91.2085 563.686 91.2085Z" fill="#2BA9E1"/>
<path d="M490.471 109.896C489.014 106.338 500.33 100.166 500.33 100.166C501.573 99.9091 511.089 122.025 531.794 123.997C539.167 124.683 552.927 117.011 554.298 115.596C554.47 115.425 566.601 126.783 566.601 126.783C564.115 129.398 558.671 138.613 548.983 142.127C528.879 149.457 496.215 133.855 490.471 109.896Z" fill="#FDAD9B"/>
<path d="M580.061 349.747C580.061 349.747 579.932 355.19 576.288 356.733C572.645 358.276 562.143 359.648 566.086 363.163C568.358 365.177 578.946 363.891 581.947 363.891C584.947 363.891 587.777 365.22 590.006 363.163C592.449 360.934 590.006 349.79 590.006 349.79C590.006 349.79 587.434 351.161 585.076 351.076C581.732 350.947 580.061 349.747 580.061 349.747Z" fill="#2BA9E1"/>
<path d="M548.769 185.632C548.769 185.632 548.04 210.191 555.756 257.253C561.328 291.242 567.887 325.488 571.145 341.904C572.302 347.776 577.146 352.062 582.933 352.319L586.019 352.447C592.278 352.705 597.336 347.261 596.864 340.789L589.063 229.736L587.134 193.175L548.769 185.632Z" fill="#091B2D"/>
<path d="M614.396 349.747C614.396 349.747 614.268 355.19 610.624 356.733C606.981 358.276 596.478 359.648 600.422 363.163C602.694 365.177 613.282 363.891 616.282 363.891C619.283 363.891 622.112 365.22 624.341 363.163C626.784 360.934 624.341 349.79 624.341 349.79C624.341 349.79 621.769 351.161 619.412 351.076C616.068 350.947 614.396 349.747 614.396 349.747Z" fill="#2BA9E1"/>
<path d="M583.104 185.632C583.104 185.632 582.375 210.191 590.091 257.253C595.664 291.242 602.222 325.488 605.48 341.904C606.637 347.776 611.481 352.062 617.268 352.319L620.354 352.447C626.613 352.705 631.671 347.261 631.2 340.789L623.398 229.736L621.469 193.175L583.104 185.632Z" fill="#091B2D"/>
<path d="M607.109 121.468C607.109 121.468 601.151 106.638 572.945 110.496C532.265 116.068 542.082 144.87 545.511 181.988C545.511 181.988 582.718 180.488 621.769 183.317C621.769 183.36 619.197 143.67 607.109 121.468Z" fill="#2BA9E1"/>
<path d="M622.841 120.825C622.841 120.825 617.997 136.984 605.266 141.742C593.178 146.242 550.698 154.086 541.782 147.571C529.865 138.87 536.209 120.782 536.209 120.782C536.209 120.782 544.225 118.511 563.129 112.553C564.886 111.996 566.772 111.482 568.701 111.096C571.959 110.41 575.26 110.067 578.518 109.896C608.652 108.31 622.841 120.825 622.841 120.825Z" fill="#2BA9E1"/>
<path d="M591.72 267.754C591.72 267.754 591.763 267.754 591.72 267.754C591.892 267.711 591.977 267.625 591.934 267.497C589.62 254.467 591.849 244.009 594.164 237.494C596.65 230.464 599.736 226.478 599.736 226.436C599.822 226.35 599.779 226.178 599.693 226.093C599.608 226.007 599.436 226.05 599.35 226.135C599.222 226.307 586.962 242.466 591.463 267.582C591.506 267.711 591.592 267.754 591.72 267.754Z" fill="#010203"/>
<path d="M621.769 183.36C621.769 183.36 600.508 166.859 599.565 145.557C598.622 124.255 588.12 126.741 581.047 127.341C574.017 127.898 564.329 127.341 563.214 133.213C562.1 139.085 566.515 154.257 557.428 168.016C548.297 181.774 545.511 182.031 545.511 182.031L551.426 226.35L622.755 218.249L621.769 183.36Z" fill="#091B2D"/>
<path d="M589.534 128.798L590.263 109.896C590.263 109.896 586.534 108.739 584.176 109.81L584.605 129.955L589.534 128.798Z" fill="#091B2D"/>
<path d="M571.83 129.912L561.414 113.368C561.414 113.368 555.027 112.682 554.298 115.597L566.601 134.199L571.83 129.912Z" fill="#091B2D"/>
<path d="M499.644 81.651C500.073 81.8653 500.588 81.6938 500.802 81.2652L512.547 57.1772C512.761 56.7486 512.59 56.2343 512.161 56.02C511.733 55.8057 511.218 55.9771 511.004 56.4057L499.259 80.4937C499.044 80.9223 499.216 81.4367 499.644 81.651Z" fill="white"/>
<path d="M487.985 105.568C490.343 106.725 493.172 105.782 494.329 103.382L505.131 81.2225C506.289 78.8651 505.303 75.9506 502.988 74.7504C500.63 73.5932 497.801 74.5361 496.644 76.9364L485.842 99.0956C484.684 101.496 485.67 104.367 487.985 105.568Z" fill="#157BA9"/>
<path d="M489.7 102.181L489.314 102.439C488.671 102.91 487.728 102.739 487.256 102.096L482.112 94.7236C481.641 94.0378 481.812 93.1377 482.455 92.6662L482.841 92.4091C483.484 91.9376 484.427 92.109 484.899 92.752L490.042 100.124C490.514 100.81 490.343 101.71 489.7 102.181Z" fill="#FDAD9B"/>
<path d="M493.214 99.6523L492.872 99.9094C492.186 100.381 491.286 100.209 490.771 99.5666L484.084 89.9657C483.613 89.2799 483.784 88.3369 484.427 87.8655L484.77 87.6083C485.456 87.1368 486.356 87.3083 486.827 87.9512L493.515 97.5521C494.029 98.2379 493.9 99.1808 493.214 99.6523Z" fill="#FDAD9B"/>
<path d="M498.873 106.082L498.273 106.039C497.158 105.996 496.258 104.968 496.344 103.853L496.944 92.7095C496.987 91.5522 497.973 90.695 499.087 90.7379L499.687 90.7807C500.802 90.8236 501.702 91.8523 501.616 92.9666L501.016 104.111C500.973 105.268 499.987 106.125 498.873 106.082Z" fill="#FDAD9B"/>
<path d="M496.601 97.2523C495.829 97.8094 494.758 97.5951 494.243 96.8236L486.742 86.0655C486.184 85.294 486.399 84.2225 487.128 83.6653C487.899 83.1081 488.971 83.3224 489.485 84.0939L496.987 94.852C497.544 95.6235 497.372 96.6951 496.601 97.2523Z" fill="#FDAD9B"/>
<path d="M491.886 110.882C491.886 110.882 483.055 106.853 481.384 100.038C480.826 97.6805 489.528 87.9082 491.843 89.2369C494.2 90.5227 500.502 100.852 500.502 100.852L491.886 110.882Z" fill="#FDAD9B"/>
<path d="M486.227 104.711L485.756 105.053C485.113 105.482 484.255 105.353 483.827 104.711L479.669 98.7957C479.24 98.1528 479.369 97.2956 480.012 96.8241L480.483 96.4812C481.126 96.0526 481.984 96.1812 482.412 96.8241L486.57 102.739C486.999 103.382 486.87 104.239 486.227 104.711Z" fill="#FDAD9B"/>
<path d="M110.208 390.25C110.208 390.25 110.337 396.122 114.323 397.751C118.267 399.422 129.755 400.88 125.468 404.651C123.025 406.794 111.408 405.423 108.151 405.423C104.893 405.423 101.806 406.837 99.3631 404.651C96.7054 402.251 99.3631 390.25 99.3631 390.25C99.3631 390.25 102.192 391.707 104.721 391.664C108.365 391.579 110.208 390.25 110.208 390.25Z" fill="#2BA9E1"/>
<path d="M41.9228 390.422C41.9228 390.422 40.2939 396.037 43.5517 398.823C46.8095 401.609 57.3117 406.538 52.082 408.81C49.0814 410.096 38.4507 405.252 35.3215 404.224C32.1923 403.238 28.8487 403.624 27.177 400.795C25.3766 397.666 31.5921 387.079 31.5921 387.079C31.5921 387.079 33.8212 389.351 36.2645 390.079C39.7795 391.108 41.9228 390.422 41.9228 390.422Z" fill="#2BA9E1"/>
<path d="M111.837 267.582C110.422 267.025 109.908 264.967 110.68 262.953C111.108 261.753 111.966 260.81 112.866 260.381C113.466 260.124 114.066 260.081 114.58 260.295C115.995 260.853 116.509 262.91 115.738 264.924C115.309 266.125 114.452 267.067 113.552 267.496C113.209 267.625 112.866 267.71 112.566 267.71C112.309 267.71 112.094 267.668 111.837 267.582ZM113.166 261.024C112.394 261.367 111.708 262.181 111.323 263.167C110.723 264.753 111.065 266.467 112.094 266.853C112.437 266.982 112.866 266.982 113.252 266.767C114.023 266.425 114.709 265.61 115.095 264.624C115.695 263.039 115.352 261.324 114.323 260.938C114.195 260.895 114.023 260.853 113.852 260.853C113.637 260.895 113.423 260.938 113.166 261.024Z" fill="#E08B65"/>
<path d="M220.331 235.864L224.189 223.992C223.245 223.306 191.953 207.962 168.291 173.159C168.291 173.159 167.348 171.23 159.461 175.302C151.359 179.459 151.96 182.631 151.96 182.631C170.992 219.32 219.773 235.479 220.331 235.864Z" fill="#EAA678"/>
<path d="M139.614 246.88C138.585 258.067 135.499 283.612 132.584 301.271C126.926 335.217 120.282 369.42 116.981 385.836C115.824 391.708 110.894 395.994 105.021 396.209L101.892 396.337C95.591 396.594 90.4471 391.151 90.9186 384.722L98.2915 281.898L98.8916 273.797L100.306 247.438C105.15 248.981 89.6326 241.737 92.9333 245.08L85.8175 238.822C85.7747 238.78 128.04 233.851 139.614 246.88Z" fill="#091B2D"/>
<path d="M113.295 247.523L98.2486 281.855L52.8537 385.364C50.3674 391.065 44.6234 394.494 38.5365 393.936L35.8788 393.679C29.6632 393.079 25.5481 386.821 27.3485 380.692C27.3485 380.692 63.5273 239.079 65.199 234.021C65.199 234.021 85.003 237.408 98.8487 241.822C103.778 243.365 109.994 244.222 113.295 247.523Z" fill="#091B2D"/>
<path d="M92.4189 152.757C92.4189 152.757 102.75 137.627 125.897 142.813C151.359 148.514 153.117 162.315 150.073 188.889C148.144 205.69 142.4 237.151 138.114 260.939C138.114 260.939 115.695 233.765 72.9578 208.562C72.9578 208.562 82.7312 166.815 92.4189 152.757Z" fill="#FF8548"/>
<path d="M73.7294 205.39C73.7294 205.39 77.9731 210.876 89.7183 205.39C103.607 198.875 131.384 184.903 142.743 185.76C154.103 186.617 169.32 171.058 169.32 171.058C169.32 171.058 154.746 153.914 135.799 145.899C133.999 145.127 132.156 144.442 130.184 143.842C126.883 142.813 123.497 142.213 120.153 141.613C79.1733 134.198 73.7294 205.39 73.7294 205.39Z" fill="#2BA9E1"/>
<path d="M124.225 145.042C123.668 142.599 125.554 143.113 126.883 141.356L130.955 135.87L132.155 134.284L139.143 124.897L135.885 135.527L133.913 141.913L133.313 143.928C132.884 145.299 133.184 145.599 133.784 147.142C134.041 147.742 134.856 150.228 132.541 150.443C130.441 150.614 124.911 148.128 124.225 145.042Z" fill="#FDAD9B"/>
<path d="M129.455 132.612C129.455 132.612 120.539 125.24 124.868 118.168C129.198 111.096 131.641 128.54 131.641 128.54L130.569 132.698L129.455 132.612Z" fill="#091B2D"/>
<path d="M130.955 135.655C130.955 135.698 130.955 135.784 130.912 135.827C130.398 139.384 133.827 141.87 133.827 141.87H133.87L135.842 135.484C134.77 134.798 133.227 133.984 132.113 134.241C131.555 134.37 131.127 134.798 130.955 135.655Z" fill="#091B2D"/>
<path d="M148.359 130.083C149.816 123.74 146.687 117.611 141.457 116.411C136.185 115.211 130.741 119.411 129.283 125.754C127.826 132.098 130.955 138.227 136.185 139.427C141.457 140.627 146.901 136.427 148.359 130.083Z" fill="#FDAD9B"/>
<path d="M130.998 124.726C130.998 124.726 133.784 126.44 135.928 124.683C138.028 122.925 139.528 121.254 144.672 123.397C149.859 125.54 155.217 124.04 156.032 121.168C156.846 118.297 154.317 116.325 151.188 116.668C148.059 117.011 151.745 115.039 149.345 112.253C146.944 109.467 141.629 112.896 138.8 111.61C135.971 110.324 126.069 109.767 124.911 118.168L130.998 124.726Z" fill="#091B2D"/>
<path d="M129.026 126.526C129.755 127.468 130.998 127.726 131.813 127.083C132.67 126.44 132.756 125.154 132.027 124.254C131.298 123.311 130.055 123.054 129.241 123.697C128.426 124.34 128.298 125.583 129.026 126.526Z" fill="#FDAD9B"/>
<path d="M150.245 120.439C150.502 120.439 150.716 120.396 150.931 120.354C151.959 120.011 152.217 119.453 152.131 119.068C152.002 118.596 151.359 118.211 150.459 118.339C148.916 118.596 148.059 118.125 148.059 118.125L148.016 118.253C148.059 118.253 148.959 118.725 150.502 118.468C151.316 118.339 151.917 118.682 152.002 119.068C152.088 119.411 151.831 119.882 150.888 120.182C148.959 120.825 145.358 118.039 145.315 118.039L145.229 118.125C145.401 118.296 148.23 120.439 150.245 120.439Z" fill="white"/>
<path d="M140.814 114.139C143 114.139 145.015 113.024 145.144 112.853L145.058 112.767L145.101 112.81L145.058 112.767C144.929 112.896 141.972 114.61 139.271 113.796C138.371 113.539 137.599 113.196 136.871 112.853C135.37 112.21 134.042 111.61 132.67 111.996L132.713 112.124C134.084 111.781 135.37 112.338 136.828 112.981C137.599 113.324 138.371 113.667 139.228 113.924C139.786 114.053 140.3 114.139 140.814 114.139Z" fill="white"/>
<path d="M127.269 117.439C127.14 117.396 127.054 117.311 127.097 116.968C127.14 116.882 128.169 115.253 128.855 115.596C128.941 115.639 129.069 115.768 128.941 116.068C128.726 116.625 127.783 117.482 127.312 117.482C127.355 117.482 127.312 117.439 127.269 117.439ZM127.269 117.011C127.226 117.139 127.226 117.311 127.355 117.353C127.655 117.439 128.683 116.582 128.898 116.025C128.983 115.81 128.898 115.725 128.855 115.725C128.812 115.682 128.769 115.682 128.683 115.682C128.169 115.682 127.526 116.582 127.269 117.011Z" fill="white"/>
<path d="M140.729 128.069C140.771 128.069 140.857 128.026 140.857 127.94C140.9 127.854 140.857 127.726 140.771 127.683C140.729 127.64 139.4 126.911 138.157 128.112C138.071 128.197 138.071 128.326 138.157 128.412C138.242 128.497 138.328 128.497 138.457 128.412C139.4 127.854 140.557 128.026 140.6 128.069C140.643 128.112 140.686 128.112 140.729 128.069Z" fill="#060633"/>
<path d="M139.014 130.169C138.971 130.64 139.228 131.026 139.571 131.069C139.914 131.112 140.214 130.726 140.257 130.255C140.3 129.783 140.043 129.397 139.7 129.354C139.4 129.354 139.057 129.697 139.014 130.169Z" fill="#060633"/>
<path d="M147.801 130.083C147.844 130.083 147.887 130.083 147.93 130.04C148.016 129.954 148.016 129.826 147.93 129.783C147.887 129.74 147.244 128.583 145.958 129.312C145.873 129.354 145.83 129.483 145.873 129.569C145.915 129.654 146.001 129.697 146.087 129.654C146.944 129.44 147.716 129.997 147.716 130.04C147.759 130.04 147.759 130.083 147.801 130.083Z" fill="#060633"/>
<path d="M145.401 131.37C145.187 131.798 145.272 132.27 145.572 132.398C145.873 132.57 146.301 132.355 146.516 131.927C146.73 131.498 146.644 131.027 146.344 130.898C146.044 130.727 145.615 130.941 145.401 131.37Z" fill="#060633"/>
<path d="M139.657 136.727C140.557 136.727 141.243 136.513 141.286 136.513C141.372 136.47 141.415 136.427 141.372 136.341C141.329 136.256 141.286 136.213 141.2 136.256C141.072 136.299 137.9 137.284 136.142 134.627C136.099 134.584 136.013 134.541 135.971 134.584C135.928 134.627 135.885 134.713 135.928 134.756C136.956 136.384 138.5 136.727 139.657 136.727Z" fill="#020202"/>
<path d="M135.628 135.312C135.67 135.312 135.756 135.27 135.756 135.227C135.799 135.012 135.971 134.712 136.485 134.37L136.528 134.327C136.571 134.284 136.614 134.198 136.571 134.112C136.528 134.07 136.442 134.027 136.356 134.07C135.842 134.412 135.585 134.755 135.499 135.098C135.499 135.184 135.542 135.27 135.628 135.312Z" fill="#020202"/>
<path d="M145.058 137.327C143.258 135.827 143.086 132.012 144.629 128.841C145.572 126.912 147.03 125.583 148.487 125.283C149.345 125.112 150.159 125.326 150.845 125.883C152.645 127.383 152.817 131.198 151.274 134.37C150.331 136.299 148.873 137.627 147.416 137.927C147.201 137.97 147.03 137.97 146.816 137.97C146.173 137.97 145.572 137.756 145.058 137.327ZM148.573 125.669C147.244 125.926 145.915 127.212 145.015 129.012C143.558 132.012 143.686 135.57 145.315 136.984C145.873 137.456 146.558 137.627 147.287 137.499C148.616 137.241 149.945 135.956 150.845 134.155C152.302 131.155 152.174 127.598 150.545 126.183C150.116 125.798 149.602 125.626 149.087 125.626C148.916 125.626 148.745 125.626 148.573 125.669Z" fill="white"/>
<g opacity="0.3">
<path opacity="0.3" d="M134.384 125.112C133.184 128.241 133.827 131.841 135.842 133.212C137.857 134.584 140.471 133.17 141.714 130.084C142.915 126.955 142.272 123.354 140.257 121.983C138.242 120.568 135.585 121.983 134.384 125.112Z" fill="white"/>
</g>
<g opacity="0.3">
<path opacity="0.3" d="M144.501 129.098C143.301 132.227 143.729 135.87 145.53 137.241C147.33 138.613 149.73 137.198 150.974 134.07C152.174 130.941 151.745 127.298 149.945 125.926C148.144 124.554 145.744 125.969 144.501 129.098Z" fill="white"/>
</g>
<path d="M135.928 133.298C133.699 131.797 132.927 127.897 134.256 124.554C135.027 122.625 136.313 121.254 137.814 120.782C138.843 120.439 139.871 120.611 140.772 121.211C143.001 122.711 143.772 126.611 142.443 129.954C141.672 131.883 140.386 133.255 138.885 133.726C138.542 133.855 138.157 133.898 137.814 133.898C137.128 133.855 136.485 133.683 135.928 133.298ZM137.942 121.168C136.571 121.597 135.328 122.925 134.642 124.725C133.399 127.897 134.084 131.583 136.142 132.955C136.956 133.469 137.857 133.598 138.757 133.341C140.129 132.912 141.372 131.583 142.058 129.783C143.301 126.611 142.615 122.925 140.557 121.554C140.043 121.211 139.486 121.039 138.885 121.039C138.585 121.039 138.285 121.082 137.942 121.168Z" fill="white"/>
<path d="M144.801 130.341C144.887 130.341 144.972 130.298 145.058 130.255C145.229 130.126 145.229 129.869 145.101 129.698C145.058 129.655 143.986 128.455 141.843 128.541C141.629 128.541 141.457 128.712 141.457 128.926C141.457 129.141 141.672 129.312 141.843 129.312C143.601 129.226 144.458 130.169 144.501 130.212C144.629 130.298 144.715 130.341 144.801 130.341Z" fill="white"/>
<path d="M124.825 118.254L124.997 118.126C123.797 116.84 124.783 115.34 124.783 115.34L124.611 115.211C124.568 115.211 123.497 116.84 124.825 118.254Z" fill="#091B2D"/>
<path d="M122.939 120.053C122.939 120.053 124.182 119.11 125.125 119.239L125.168 119.025C124.14 118.896 122.854 119.839 122.811 119.882L122.939 120.053Z" fill="#091B2D"/>
<path d="M86.1604 177.402C88.1322 179.33 94.0905 176.587 99.4488 171.273C104.807 165.958 107.55 160.086 105.579 158.114C103.607 156.185 97.6484 158.929 92.2902 164.243C86.9319 169.558 84.1885 175.473 86.1604 177.402Z" fill="#157BA9"/>
<path d="M225.174 230.378C225.775 229.735 226.846 229.693 227.489 230.293L236.148 238.308C236.791 238.908 236.834 239.979 236.234 240.622C235.634 241.265 234.562 241.308 233.919 240.708L225.26 232.693C224.574 232.093 224.531 231.021 225.174 230.378Z" fill="#EAA678"/>
<path d="M222.302 233.464C222.902 232.821 223.974 232.779 224.617 233.379L235.848 243.794C236.491 244.394 236.534 245.465 235.934 246.108C235.334 246.751 234.262 246.794 233.619 246.194L222.388 235.779C221.745 235.136 221.702 234.107 222.302 233.464Z" fill="#EAA678"/>
<path d="M215.572 228.75L216.13 228.665C217.201 228.493 218.23 229.265 218.402 230.336L219.988 240.794C220.159 241.866 219.388 242.894 218.316 243.066L217.759 243.152C216.687 243.323 215.658 242.551 215.487 241.48L213.901 231.022C213.772 229.907 214.501 228.922 215.572 228.75Z" fill="#EAA678"/>
<path d="M219.473 236.507C220.073 235.864 221.145 235.822 221.788 236.422L230.961 244.951C231.604 245.551 231.647 246.623 231.047 247.265C230.447 247.908 229.375 247.951 228.732 247.351L219.559 238.822C218.873 238.222 218.83 237.193 219.473 236.507Z" fill="#EAA678"/>
<path d="M221.274 222.878C221.274 222.878 230.404 224.892 233.276 230.893C234.262 232.95 227.961 243.751 225.475 243.023C222.988 242.294 215.058 233.936 215.058 233.936L221.274 222.878Z" fill="#EAA678"/>
<path d="M227.918 227.378L228.004 227.292C228.604 226.65 229.59 226.607 230.233 227.207L237.22 233.679C237.863 234.279 237.906 235.265 237.305 235.908L237.22 235.993C236.62 236.636 235.634 236.679 234.991 236.079L228.004 229.607C227.403 229.007 227.361 227.978 227.918 227.378Z" fill="#EAA678"/>
<path d="M168.634 224.677L174.978 224.42C174.978 224.335 174.721 216.577 176.522 208.776C178.751 199.261 182.909 194.117 188.824 193.474C193.882 192.917 197.526 194.675 200.012 198.789C202.07 202.175 202.498 205.904 202.498 205.947L208.8 205.261C208.757 204.876 207.771 195.875 201.298 190.646C197.74 187.774 193.325 186.617 188.138 187.174C167.477 189.36 168.549 223.22 168.634 224.677Z" fill="#091B2D"/>
<path d="M209.185 204.575C209.357 205.261 207.899 206.204 205.928 206.633C203.999 207.104 202.284 206.89 202.113 206.204C201.941 205.518 203.399 204.575 205.37 204.147C207.299 203.718 209.014 203.89 209.185 204.575Z" fill="#2BA9E1"/>
<path d="M159.418 232.393L163.233 247.395C163.748 249.495 165.634 250.952 167.777 251.038L257.753 253.395C259.896 253.438 261.782 252.109 262.468 250.095L268.812 230.722C269.798 227.678 267.569 224.507 264.397 224.421L168.163 221.592C162.333 221.378 158.004 226.778 159.418 232.393Z" fill="#091B2D"/>
<path d="M266.326 408.809H163.748C158.861 408.809 154.831 404.909 154.66 400.023L150.073 260.167C149.902 254.938 154.146 250.652 159.375 250.78L269.326 253.652C274.299 253.78 278.242 257.895 278.157 262.91L275.413 399.937C275.284 404.866 271.255 408.809 266.326 408.809Z" fill="#157BA9"/>
<path d="M161.176 390.379L157.189 269.81C157.103 267.539 157.961 265.353 159.59 263.767C161.218 262.138 163.319 261.281 165.634 261.324L260.41 263.81C264.911 263.938 268.512 267.667 268.426 272.168L266.068 390.293C265.983 394.75 262.296 398.351 257.838 398.351H169.363C164.905 398.308 161.304 394.836 161.176 390.379ZM160.104 264.281C158.647 265.738 157.875 267.71 157.961 269.767L161.947 390.336C162.076 394.365 165.334 397.494 169.363 397.494H257.752C261.782 397.494 265.082 394.236 265.168 390.207L267.526 272.082C267.612 268.01 264.354 264.624 260.281 264.496L165.505 262.01C165.419 262.01 165.376 262.01 165.291 262.01C163.362 262.095 161.519 262.867 160.104 264.281Z" fill="#2BA9E1"/>
<path d="M214.509 263.303L213.695 263.322L216.937 397.266L217.752 397.246L214.509 263.303Z" fill="#2BA9E1"/>
<path d="M137.471 266.425C137.471 266.425 152.131 199.176 152.174 192.018C152.217 184.86 154.874 174.659 137.471 171.444C120.067 168.23 114.28 166.644 111.065 174.702C107.893 182.76 100.735 200.461 86.8891 200.376C73.0435 200.29 70.1715 209.762 70.1715 209.762L57.9976 261.667L137.471 266.425Z" fill="#091B2D"/>
<path d="M98.5915 281.984L102.964 271.525C105.707 264.968 107.55 261.796 113.466 258.967L113.166 258.281C107.036 261.153 105.064 264.582 102.278 271.225L97.9056 281.683L98.5915 281.984Z" fill="#020202"/>
<path d="M164.776 216.106L160.147 232.565C124.654 214.306 97.5199 184.86 91.6044 177.402C90.7471 176.288 90.4471 174.874 90.8329 173.502C91.3901 171.445 92.6761 168.273 95.4195 165.273C98.1201 162.315 100.349 160.386 101.849 159.272C102.964 158.415 104.507 158.629 105.364 159.701C111.751 167.544 134.127 200.376 164.776 216.106Z" fill="#FDAD9B"/>
<path d="M170.135 239.551L185.652 216.106C185.652 216.106 191.182 216.534 193.925 211.005C196.669 205.476 192.168 206.505 189.939 208.348C187.667 210.191 184.88 209.034 184.709 206.719C184.495 204.405 186.338 200.462 183.294 200.376C180.251 200.29 176.95 206.976 180.337 212.463L165.205 235.308C165.205 235.308 152.345 233.507 152.174 244.909C152.174 244.909 154.617 248.38 156.289 245.337C157.961 242.294 160.747 238.651 164.433 241.523C168.12 244.437 168.163 245.594 166.877 247.866C165.591 250.138 162.376 251.895 164.348 253.395C166.362 254.895 168.506 254.595 170.435 251.295C172.407 247.995 172.964 241.737 170.135 239.551Z" fill="#2BA9E1"/>
<path d="M166.062 229.136L165.805 229.479C165.248 230.25 165.419 231.322 166.191 231.879L174.85 238.094C175.622 238.651 176.693 238.479 177.25 237.708L177.508 237.365C178.065 236.594 177.893 235.522 177.122 234.965L168.463 228.75C167.691 228.193 166.62 228.364 166.062 229.136Z" fill="#FDAD9B"/>
<path d="M168.977 225.106L168.677 225.492C168.12 226.264 168.291 227.292 169.063 227.85L179.008 235.007C179.78 235.565 180.808 235.393 181.366 234.622L181.666 234.236C182.223 233.464 182.051 232.436 181.28 231.879L171.335 224.721C170.563 224.164 169.492 224.335 168.977 225.106Z" fill="#FDAD9B"/>
<path d="M161.819 218.763L161.862 219.235C161.947 220.563 163.062 221.635 164.433 221.549L178.365 220.863C179.694 220.778 180.765 219.663 180.68 218.292L180.637 217.82C180.551 216.492 179.437 215.42 178.065 215.506L164.133 216.192C162.805 216.234 161.776 217.392 161.819 218.763Z" fill="#FDAD9B"/>
<path d="M171.849 221.121L171.592 221.464C171.035 222.235 171.206 223.307 171.978 223.864L180.765 230.165C181.537 230.722 182.609 230.551 183.166 229.779L183.423 229.436C183.98 228.665 183.809 227.593 183.037 227.036L174.207 220.735C173.478 220.178 172.364 220.35 171.849 221.121Z" fill="#FDAD9B"/>
<path d="M156.375 226.563C156.375 226.563 160.833 236.636 168.42 238.565C171.035 239.25 182.051 229.392 180.594 226.735C179.136 224.078 167.648 216.834 167.648 216.834L156.375 226.563Z" fill="#FDAD9B"/>
<path d="M163.276 232.994L162.89 233.551C162.376 234.279 162.547 235.265 163.276 235.78L169.577 240.28C170.306 240.794 171.292 240.623 171.806 239.894L172.192 239.337C172.707 238.608 172.535 237.623 171.806 237.108L165.505 232.608C164.776 232.136 163.791 232.308 163.276 232.994Z" fill="#FDAD9B"/>
<path d="M139.657 146.413C139.657 146.413 146.258 168.444 145.958 177.359L140.557 176.373C140.557 176.373 136.528 150.399 135.799 145.942C135.799 145.942 139.1 144.57 139.657 146.413Z" fill="#091B2D"/>
<path d="M122.554 171.701C122.639 171.101 125.468 152.628 121.525 142.041C121.525 142.041 119.767 140.198 117.795 141.055C117.795 141.055 122.339 162.872 118.31 171.701H121.568H122.554Z" fill="#091B2D"/>
<path d="M141.457 178.002C141.457 178.002 139.786 176.459 140.386 175.259C140.986 174.059 142.058 173.759 143.043 174.145C144.029 174.53 144.158 176.202 143.815 176.973C143.472 177.745 142.015 178.688 141.457 178.002Z" fill="#2BA9E1"/>
<path d="M118.653 172.688C118.653 172.688 119.467 171.016 120.667 170.673C121.868 170.33 122.854 171.402 122.725 172.688C122.596 173.973 121.825 174.531 120.667 174.445C119.553 174.402 118.396 173.716 118.653 172.688Z" fill="#2BA9E1"/>
<path d="M503.545 227.507L500.759 252.195C500.459 254.681 498.401 256.524 495.958 256.524H420.214C417.685 256.524 415.542 254.509 415.413 251.938L413.913 226.264C413.741 223.435 415.97 221.035 418.799 221.078L498.873 222.021C501.702 222.106 503.888 224.635 503.545 227.507Z" fill="#2BA9E1"/>
<path d="M474.611 217.863L478.726 216.706L476.54 209.119C475.511 205.562 472.253 203.033 468.567 203.033H448.248C444.09 203.033 440.575 206.162 440.018 210.32L439.118 217.006L443.362 217.563L444.262 210.877C444.519 208.862 446.233 207.319 448.248 207.319H468.567C470.324 207.319 471.91 208.519 472.425 210.277L474.611 217.863Z" fill="#2BA9E1"/>
<path d="M509.161 220.134V223.135C509.161 225.706 507.103 227.806 504.574 227.849L414.813 229.007C412.241 229.049 410.098 226.906 410.098 224.292V221.12C410.098 218.548 412.155 216.448 414.684 216.405L504.445 215.42C507.017 215.377 509.161 217.52 509.161 220.134Z" fill="#091B2D"/>
<path d="M355.53 265.181C382.664 281.34 415.07 279.583 437.489 275.297L434.017 257.981C407.14 263.167 388.236 258.109 370.918 248.251C364.403 244.565 344.342 258.495 355.53 265.181Z" fill="#FDAD9B"/>
<path d="M527.164 413.438C514.605 420.124 433.074 415.924 402.982 414.124C396.681 413.738 391.751 408.466 391.708 402.037C391.622 373.706 391.537 300.07 391.494 270.024C391.494 262.738 397.238 256.737 404.397 256.566C431.573 255.88 493.815 254.552 515.419 254.209C519.62 254.123 523.092 257.509 523.221 261.795C524.078 293.598 538.738 407.266 527.164 413.438Z" fill="#157BA9"/>
<path d="M468.095 270.711C468.695 268.182 471.139 265.996 473.668 265.996C476.24 265.996 479.026 266.725 479.026 271.439C479.026 274.054 476.24 275.426 473.668 275.426C471.096 275.426 467.238 274.225 468.095 270.711Z" fill="white"/>
<path d="M450.263 270.711C450.863 268.182 453.306 265.996 455.836 265.996C458.408 265.996 461.194 266.725 461.194 271.439C461.194 274.054 458.408 275.426 455.836 275.426C453.264 275.426 449.406 274.225 450.263 270.711Z" fill="white"/>
<path d="M432.817 270.711C433.417 268.182 435.86 265.996 438.389 265.996C440.961 265.996 443.747 266.725 443.747 271.439C443.747 274.054 440.961 275.426 438.389 275.426C435.86 275.426 432.002 274.225 432.817 270.711Z" fill="white"/>
<path d="M416.785 270.711C417.385 268.182 419.828 265.996 422.357 265.996C424.886 265.996 427.715 266.725 427.715 271.439C427.715 274.054 424.929 275.426 422.357 275.426C419.785 275.426 415.97 274.225 416.785 270.711Z" fill="white"/>
<path d="M491.8 262.181L510.232 262.91C511.904 262.996 513.233 264.324 513.319 265.996L513.919 275.768C514.047 277.74 512.419 279.411 510.447 279.24L491.414 277.783C489.742 277.654 488.414 276.24 488.414 274.525V265.482C488.414 263.596 489.957 262.096 491.8 262.181Z" fill="#2BA9E1"/>
<path d="M406.754 342.588C406.754 314.514 429.344 288.798 456.864 291.755C490.986 295.398 506.974 314.514 506.974 342.588C506.974 370.662 484.556 393.422 456.864 393.422C429.173 393.422 406.754 370.662 406.754 342.588Z" fill="#2BA9E1"/>
<path d="M403.153 342.589C404.139 312.543 420.643 290.255 456.864 288.112C499.473 285.583 510.575 312.543 510.575 342.589C510.575 380.949 486.485 397.065 456.864 397.065C427.244 397.065 401.825 382.235 403.153 342.589ZM413.827 339.717C413.827 365.734 426.73 385.45 456.864 389.779C482.241 393.422 501.188 373.277 501.188 347.26C501.188 321.244 486.785 292.827 456.864 295.398C431.188 295.398 413.827 313.7 413.827 339.717Z" fill="white"/>
<path d="M417.685 360.248H410.355V326.773H419.914C423.686 326.773 426.73 329.817 426.73 333.588V351.204C426.73 356.219 422.657 360.248 417.685 360.248Z" fill="white"/>
<path d="M384.335 411.424C384.335 411.424 384.507 417.853 388.793 419.696C393.08 421.496 405.511 423.168 400.882 427.282C398.224 429.64 385.664 428.14 382.106 428.14C378.548 428.14 375.248 429.725 372.59 427.282C369.675 424.625 372.59 411.424 372.59 411.424C372.59 411.424 375.634 413.053 378.42 412.967C382.363 412.881 384.335 411.424 384.335 411.424Z" fill="#2BA9E1"/>
<path d="M244.978 405.852C244.978 405.852 238.634 405.98 236.834 410.352C235.034 414.681 233.362 427.325 229.332 422.568C227.018 419.867 228.561 407.095 228.561 403.494C228.561 399.894 227.018 396.508 229.418 393.851C232.033 390.936 245.021 393.894 245.021 393.894C245.021 393.894 243.435 396.98 243.478 399.808C243.564 403.837 244.978 405.852 244.978 405.852Z" fill="#2BA9E1"/>
<path d="M375.848 416.267C368.218 414.553 363.545 406.752 365.56 399.123C366.374 396.037 367.232 392.608 368.046 389.051C369.246 383.864 369.975 379.493 370.704 375.892C374.133 359.176 319.051 356.048 319.051 347.132L321.965 328.574L319.051 347.132L324.837 310.015C325.48 310.1 386.564 326.773 398.781 339.546C406.883 347.99 412.027 362.862 402.51 391.065C400.496 397.109 398.524 402.809 396.895 407.524C394.409 414.682 387.079 418.839 379.791 417.21L375.848 416.267Z" fill="#091B2D"/>
<path d="M246.95 414.809C242.706 413.138 239.063 410.352 239.749 405.766L240.949 397.922C241.592 393.722 244.935 390.421 249.093 389.95C263.711 388.193 297.36 393.293 301.261 388.793C304.005 385.621 294.06 362.819 292.517 333.673C292.174 327.501 291.616 321.972 291.445 316.957C290.888 300.284 336.283 300.97 339.969 322.144C345.627 354.632 347.171 406.966 335.554 421.453C323.637 436.326 271.084 424.196 246.95 414.809Z" fill="#091B2D"/>
<path d="M304.605 239.294C304.605 239.294 311.249 226.564 339.798 232.393C348.371 234.15 352.186 238.994 356.472 242.037C363.074 246.752 363.545 250.523 360.931 257.724C354.972 273.968 347.385 297.756 364.017 322.359C364.017 322.359 294.831 341.475 293.288 316.744C293.245 316.701 283.3 274.14 304.605 239.294Z" fill="#2BA9E1"/>
<path d="M290.459 250.566L311.249 248.123C311.249 248.123 345.67 265.225 356.815 265.91C367.961 266.596 376.919 249.066 376.919 249.066C376.919 249.066 366.717 238.136 344.041 233.25C340.698 232.522 337.397 231.75 334.097 231.364C288.702 225.792 290.459 250.566 290.459 250.566Z" fill="#2BA9E1"/>
<path d="M336.583 228.02L340.183 221.42L341.212 219.491L347.342 208.176L345.37 220.305L344.213 227.592L343.827 229.906C343.57 231.449 343.784 232.821 344.642 234.407C344.984 235.05 346.442 238.607 342.798 239.422C338.255 240.407 332.21 235.307 330.024 231.021C330.11 230.935 335.168 231.106 336.583 228.02Z" fill="#FDAD9B"/>
<path d="M290.459 250.565C290.631 251.166 291.316 251.551 292.474 251.808C295.217 252.366 300.49 251.937 306.319 250.523C310.778 249.408 314.678 247.951 317.207 246.537C319.351 245.336 320.508 244.179 320.251 243.279C319.994 242.336 318.279 241.822 315.621 241.822C312.707 241.779 308.72 242.293 304.391 243.322C298.432 244.779 293.503 246.879 291.445 248.68C290.716 249.365 290.331 250.008 290.459 250.565Z" fill="#157BA9"/>
<path d="M357.801 205.604C357.801 205.604 357.973 208.691 356.473 212.205C354.972 215.72 353.129 205.947 353.129 205.947L357.801 205.604Z" fill="#091B2D"/>
<path d="M356.652 213.305C357.144 206.031 352.717 199.808 346.765 199.405C340.813 199.003 335.589 204.574 335.097 211.848C334.605 219.122 339.032 225.345 344.984 225.747C350.936 226.15 356.16 220.579 356.652 213.305Z" fill="#FDAD9B"/>
<path d="M335.597 208.005L340.826 208.519C341.984 208.648 343.141 208.219 343.956 207.405C345.327 205.947 346.785 205.347 351.5 206.547C357.501 208.048 362.217 205.219 363.545 202.133C364.874 199.004 362.217 196.132 358.873 197.032C355.529 197.975 357.587 194.418 354.758 193.389C349.442 191.503 347.556 195.532 343.141 194.461C337.311 193.046 325.909 195.361 328.738 206.89L335.597 208.005Z" fill="#091B2D"/>
<path d="M346.571 212.119C346.613 212.076 346.699 212.033 346.699 211.991C346.742 211.862 346.656 211.733 346.571 211.733C346.485 211.733 344.984 211.091 343.827 212.634C343.741 212.719 343.784 212.891 343.87 212.934C343.956 213.019 344.084 212.976 344.17 212.891C345.113 212.119 346.399 212.119 346.442 212.119C346.485 212.162 346.528 212.162 346.571 212.119Z" fill="#060633"/>
<path d="M345.07 214.734C345.113 215.248 345.456 215.677 345.799 215.634C346.185 215.591 346.442 215.163 346.442 214.648C346.399 214.134 346.056 213.705 345.713 213.748C345.327 213.748 345.027 214.22 345.07 214.734Z" fill="#060633"/>
<path d="M354.629 213.148C354.672 213.148 354.715 213.105 354.758 213.062C354.801 212.977 354.801 212.848 354.715 212.762C354.672 212.719 353.772 211.562 352.486 212.548C352.4 212.591 352.357 212.762 352.4 212.848C352.443 212.934 352.529 212.977 352.615 212.934C353.515 212.548 354.458 213.062 354.458 213.105C354.544 213.148 354.586 213.148 354.629 213.148Z" fill="#060633"/>
<path d="M352.229 214.991C352.057 215.505 352.229 216.02 352.572 216.105C352.915 216.234 353.343 215.934 353.515 215.419C353.686 214.905 353.515 214.391 353.172 214.305C352.829 214.177 352.4 214.477 352.229 214.991Z" fill="#060633"/>
<path d="M328.781 206.933C328.781 206.933 330.753 215.42 335.64 217.049C335.64 217.049 332.768 210.319 342.07 208.476C342.027 208.476 334.44 205.562 328.781 206.933Z" fill="#091B2D"/>
<path d="M334.954 212.677C335.897 213.577 337.312 213.663 338.083 212.806C338.898 211.948 338.769 210.534 337.869 209.634C336.926 208.734 335.511 208.648 334.74 209.505C333.968 210.363 334.011 211.777 334.954 212.677Z" fill="#FDAD9B"/>
<path d="M342.027 208.476C342.027 208.476 340.012 214.819 341.084 216.319C342.155 217.82 350.643 220.134 354.972 219.405C354.201 223.606 350.557 226.649 346.356 226.52C344.985 226.478 343.57 226.177 342.241 225.663C339.541 224.592 337.054 222.834 336.411 219.92C336.24 219.02 338.255 214.305 338.255 214.305C338.255 214.305 339.241 211.476 337.869 209.633C337.869 209.633 340.184 208.262 342.027 208.476Z" fill="#091B2D"/>
<path d="M352.4 221.335C352.4 221.335 348.928 221.549 345.37 220.435C345.37 220.435 345.199 223.949 349.014 224.035C351.2 224.078 352.4 221.335 352.4 221.335Z" fill="white"/>
<path d="M358.444 196.432L358.487 196.132C357.073 195.875 357.201 194.718 357.201 194.675L356.901 194.632C356.901 194.675 356.773 196.132 358.444 196.432Z" fill="#091B2D"/>
<path d="M353.558 205.176C353.558 205.176 355.315 205.047 357.158 204.49C359.602 203.761 361.102 202.604 361.531 201.19C361.831 200.204 361.788 199.475 361.402 199.004C360.845 198.275 359.559 198.275 358.487 198.318C358.316 198.318 358.144 198.318 358.016 198.318V198.446C358.187 198.446 358.316 198.446 358.487 198.446C359.559 198.404 360.759 198.404 361.273 199.089C361.616 199.518 361.616 200.204 361.359 201.147C360.416 204.447 353.601 205.047 353.515 205.047L353.558 205.176Z" fill="white"/>
<path d="M344.856 196.003C346.013 196.003 346.999 195.832 347.728 195.618C349.443 195.146 350.386 194.418 350.386 194.375L350.3 194.246C350.3 194.246 349.357 195.018 347.685 195.489C346.142 195.918 343.613 196.218 340.441 195.06L340.398 195.189C342.07 195.789 343.57 196.003 344.856 196.003Z" fill="white"/>
<path d="M343.956 359.433C344.127 359.433 344.256 359.305 344.213 359.133L343.741 343.532C344.17 340.403 347.256 338.56 347.299 338.517C347.428 338.431 347.471 338.26 347.385 338.131C347.299 338.003 347.128 337.96 346.999 338.046C346.87 338.131 343.656 340.06 343.184 343.489V343.532L343.656 359.176C343.656 359.305 343.784 359.433 343.956 359.433Z" fill="#010203"/>
<path d="M358.444 259.866C358.444 259.866 336.197 251.98 330.067 257.68C323.937 263.381 317.507 281.254 305.376 283.397C293.245 285.54 288.744 287.64 288.744 287.64C288.744 287.64 288.659 335.988 296.332 361.404L345.199 334.359L370.104 324.544C370.104 324.544 360.33 317.043 359.602 308.471C358.873 299.942 366.717 262.267 358.444 259.866Z" fill="#091B2D"/>
<path d="M384.721 292.356C384.721 292.356 391.537 286.869 396.552 287.727C401.567 288.627 407.311 293.556 404.096 293.684C400.881 293.813 396.723 292.827 396.723 292.827C396.723 292.827 405.511 295.356 404.054 297.199C402.596 299.042 394.966 296.728 394.966 296.728C394.966 296.728 405.168 300.585 403.239 301.871C401.31 303.157 393.551 300.156 393.551 300.156C393.551 300.156 402.939 304.143 400.624 305.557C398.31 306.971 392.908 302.214 391.408 304.014C389.951 305.857 383.435 312.586 377.948 309.029L384.721 292.356Z" fill="#FDAD9B"/>
<path d="M396.638 292.999L396.809 292.656C396.723 292.613 394.323 291.542 392.865 292.399L393.08 292.742C394.323 291.97 396.595 292.999 396.638 292.999Z" fill="#DD8964"/>
<path d="M394.837 296.942L395.009 296.599C394.923 296.556 392.608 295.442 390.379 296.256L390.508 296.599C392.566 295.87 394.795 296.899 394.837 296.942Z" fill="#DD8964"/>
<path d="M393.423 300.328L393.594 299.985C393.466 299.942 390.637 298.657 389.179 299.728L389.393 300.028C390.679 299.085 393.38 300.328 393.423 300.328Z" fill="#DD8964"/>
<path d="M291.488 248.68C291.702 249.494 292.045 250.565 292.474 251.808C294.446 257.295 298.732 266.51 307.562 276.154C328.91 299.599 360.416 307.442 383.092 309.928L384.721 292.355C357.501 289.398 340.869 278.982 327.109 264.495C321.923 259.009 318.793 251.337 317.207 246.536C316.307 243.879 315.921 242.079 315.921 242.036C315.921 242.036 315.836 241.95 315.664 241.779C312.749 241.736 308.763 242.25 304.433 243.279C298.475 244.779 293.545 246.879 291.488 248.68Z" fill="#FDAD9B"/>
<g opacity="0.5">
<path opacity="0.5" d="M327.838 287.041C325.738 285.155 325.095 282.497 326.338 281.04C326.809 280.483 327.452 280.183 328.267 280.14C329.553 280.054 331.096 280.654 332.339 281.811C334.439 283.697 335.082 286.355 333.839 287.812C333.368 288.369 332.725 288.669 331.91 288.712C331.825 288.712 331.739 288.712 331.653 288.712C330.41 288.712 328.995 288.112 327.838 287.041ZM328.31 281.04C327.924 281.083 327.409 281.169 327.024 281.64C326.123 282.712 326.766 284.855 328.438 286.355C329.51 287.298 330.753 287.855 331.825 287.769C332.21 287.726 332.725 287.641 333.111 287.169C334.011 286.098 333.368 283.955 331.696 282.454C330.71 281.554 329.51 281.04 328.524 281.04C328.438 281.04 328.395 281.04 328.31 281.04Z" fill="#E08B65"/>
</g>
<path d="M350.386 234.879C350.386 234.879 358.53 249.495 357.801 262.953L352.872 262.696C352.872 262.696 351.414 242.508 346.099 233.765C346.099 233.722 348.457 232.993 350.386 234.879Z" fill="#091B2D"/>
<path d="M335.383 257.681C335.554 256.952 332.639 236.422 326.424 230.55C326.424 230.55 323.509 229.436 322.137 230.55C322.137 230.55 330.239 248.809 330.067 259.053L335.383 257.681Z" fill="#091B2D"/>
<path d="M356.858 260.939C356.858 259.91 356.044 259.053 354.972 259.053C353.943 259.053 353.343 259.91 353.086 260.939C352.743 262.353 353.9 262.825 354.972 262.825C356.001 262.825 356.858 261.967 356.858 260.939Z" fill="#2BA9E1"/>
<path d="M335.425 258.409C335.425 257.381 334.611 256.523 333.539 256.523C332.51 256.523 331.91 257.381 331.653 258.409C331.31 259.824 332.468 260.295 333.539 260.295C334.568 260.295 335.425 259.438 335.425 258.409Z" fill="#2BA9E1"/>
<path d="M552.755 402.552L549.969 427.24C549.669 429.726 547.611 431.569 545.168 431.569H469.424C466.895 431.569 464.752 429.554 464.623 426.983L463.123 401.309C462.951 398.48 465.18 396.08 468.009 396.123L548.083 397.066C550.912 397.151 553.098 399.68 552.755 402.552Z" fill="#2BA9E1"/>
<path d="M523.821 392.908L527.936 391.751L525.75 384.164C524.721 380.607 521.463 378.078 517.777 378.078H497.458C493.3 378.078 489.785 381.207 489.228 385.365L488.328 392.051L492.571 392.608L493.472 385.922C493.729 383.907 495.444 382.364 497.458 382.364H517.777C519.534 382.364 521.12 383.564 521.635 385.322L523.821 392.908Z" fill="#2BA9E1"/>
<path d="M558.371 395.18V398.181C558.371 400.752 556.313 402.852 553.784 402.895L464.023 404.052C461.451 404.095 459.308 401.952 459.308 399.338V396.166C459.308 393.594 461.365 391.494 463.894 391.451L553.655 390.465C556.227 390.423 558.371 392.566 558.371 395.18Z" fill="#091B2D"/>
</svg>
